<?xml version="1.0" encoding="UTF-8" standalone="no"?>
<!-- Created with Inkscape (http://www.inkscape.org/) -->

<svg
   width="371.11667"
   height="212.50476"
   viewBox="0 0 98.191281 56.225218"
   version="1.1"
   id="svg5"
   inkscape:export-filename="logoC.svg"
   inkscape:export-xdpi="30"
   inkscape:export-ydpi="30"
   inkscape:version="1.2 (dc2aedaf03, 2022-05-15)"
   sodipodi:docname="logo.svg"
   xmlns:inkscape="http://www.inkscape.org/namespaces/inkscape"
   xmlns:sodipodi="http://sodipodi.sourceforge.net/DTD/sodipodi-0.dtd"
   xmlns="http://www.w3.org/2000/svg"
   xmlns:svg="http://www.w3.org/2000/svg">
  <sodipodi:namedview
     id="namedview7"
     pagecolor="#171717"
     bordercolor="#000000"
     borderopacity="1"
     inkscape:showpageshadow="true"
     inkscape:pageopacity="0"
     inkscape:pagecheckerboard="false"
     inkscape:deskcolor="#1a161c"
     inkscape:document-units="px"
     showgrid="true"
     shape-rendering="crispEdges"
     showborder="true"
     inkscape:zoom="1.7481481"
     inkscape:cx="1206.4195"
     inkscape:cy="211.93856"
     inkscape:window-width="1280"
     inkscape:window-height="724"
     inkscape:window-x="1280"
     inkscape:window-y="224"
     inkscape:window-maximized="1"
     inkscape:current-layer="layer1">
    <inkscape:grid
       type="xygrid"
       id="grid132"
       spacingx="0.26458333"
       spacingy="0.26458333"
       empspacing="10"
       snapvisiblegridlinesonly="true"
       dotted="false"
       color="#000000"
       opacity="0.14901961"
       empcolor="#000000"
       empopacity="0.30196078" />
  </sodipodi:namedview>
  <defs
     id="defs2" />
  <g
     inkscape:label="Capa 1"
     inkscape:groupmode="layer"
     id="layer1"
     transform="translate(-271.21705,-37.67459)">
    <path
       id="path4111-2"
       style="fill:#ffffff;fill-opacity:1;stroke:#ffffff;stroke-width:1.5875;stroke-dasharray:none;stroke-opacity:1"
       inkscape:transform-center-x="9.8009987e-06"
       d="m 298.98083,39.328865 -9.12866,17.103865 -16.98098,9.354468 17.22727,9.354467 9.57976,17.103868 9.12918,-17.103868 4.86877,-2.682007 -11.55345,-0.228409 -0.72773,-14.2875 h 3.175 l 0.4623,11.377083 h 10.05416 l 0.29347,2.199866 1.01623,-0.559656 c -0.0149,-0.01839 -0.0284,-0.03657 -0.0396,-0.05271 -0.2463,-0.363801 -0.73426,-1.361504 -0.86442,-1.852083 -0.12467,-0.490581 -0.24858,-0.507121 -0.29022,-1.12448 -0.0416,-0.617359 -0.32451,-1.830038 -0.35499,-2.579687 -0.0304,-0.74965 0.0712,-2.028475 0.0627,-2.645833 -0.009,-0.617359 0.10913,-1.361504 0.19388,-1.852084 0.0378,-0.205103 0.16527,-0.45599 0.30907,-0.700732 l -6.85152,-3.720703 z m 19.12002,22.28391 c -0.0354,0.100491 -0.0625,0.189329 -0.0719,0.250114 -0.0612,0.391362 0.0254,0.799265 0.038,1.372526 0.012,0.56775 0.0208,1.587503 0.0531,2.38125 0.0323,0.793747 0.0363,1.278821 0.0707,1.852084 0.0396,0.567749 0.13633,0.666972 0.22938,1.058333 0.0931,0.391362 0.19548,0.556729 0.37047,0.79375 0.0251,0.0329 0.14465,0.09537 0.28523,0.163814 l 6.71201,-3.697448 z" />
    <path
       id="text3587"
       style="font-style:normal;font-variant:normal;font-weight:normal;font-stretch:normal;font-size:16.9333px;font-family:Michroma;-inkscape-font-specification:Michroma;opacity:1;fill:#ffffff;fill-opacity:1;stroke:#ffffff;stroke-width:1.5875;stroke-dasharray:none;stroke-opacity:1"
       d="m 321.30276,59.002082 2.43645,1.322917 h 2.27635 c 0.70555,0 1.29876,0.02205 1.78012,0.06615 0.48664,0.03858 0.88715,0.121267 1.20098,0.248047 0.31935,0.126779 0.56925,0.308681 0.74975,0.545703 0.1805,0.237021 0.3169,0.551216 0.40997,0.942578 0.0931,0.391361 0.1568,0.873678 0.19113,1.44694 0.007,0.097 0.0121,0.245221 0.0187,0.348816 l 1.638,0.889868 c -0.0229,-0.438454 -0.0481,-0.860371 -0.0776,-1.246952 -0.0416,-0.61736 -0.1277,-1.171334 -0.25788,-1.661914 -0.12465,-0.490581 -0.30999,-0.917775 -0.55627,-1.281576 -0.24631,-0.363801 -0.58932,-0.664215 -1.02889,-0.901237 -0.43979,-0.242534 -0.99562,-0.42168 -1.66729,-0.537435 -0.66637,-0.121267 -1.48463,-0.181901 -2.45477,-0.181901 z m 18.40043,0 c -0.97014,0 -1.78624,0.06063 -2.44829,0.181901 -0.65676,0.115755 -1.1951,0.294901 -1.6152,0.537435 -0.42032,0.237022 -0.74153,0.537436 -0.96376,0.901237 -0.21674,0.363801 -0.37039,0.790995 -0.46071,1.281576 -0.0848,0.49058 -0.12278,1.044554 -0.11427,1.661914 0.009,0.617359 0.0279,1.30087 0.0584,2.05052 0.0305,0.749651 0.0664,1.433162 0.10801,2.050521 0.0416,0.617359 0.12494,1.171334 0.24961,1.661914 0.13018,0.49058 0.31828,0.917775 0.56456,1.281576 0.2518,0.363801 0.59758,0.666971 1.03739,0.909505 0.43957,0.237022 0.99261,0.413412 1.65877,0.529167 0.6719,0.121267 1.4929,0.181901 2.46304,0.181901 h 4.25814 c 0.79374,0 1.48701,-0.03859 2.07918,-0.115756 0.59241,-0.07166 1.10018,-0.184657 1.52386,-0.338997 0.42345,-0.159852 0.77097,-0.361047 1.04224,-0.603581 0.27125,-0.242534 0.48283,-0.529167 0.63477,-0.859896 0.1572,-0.33624 0.26034,-0.716581 0.30926,-1.141015 0.0487,-0.429947 0.0622,-0.909507 0.0405,-1.438672 l -0.0862,-2.116667 h -7.95403 l 0.0537,1.322917 h 6.36654 l 0.0325,0.79375 c 0.018,0.440971 0.014,0.826824 -0.0111,1.157552 -0.0258,0.325216 -0.0881,0.606338 -0.18877,0.843359 -0.0953,0.23151 -0.23619,0.424437 -0.42284,0.578776 -0.18667,0.15434 -0.4353,0.275608 -0.74592,0.363803 -0.31061,0.08819 -0.68848,0.148828 -1.13364,0.181901 -0.44513,0.03307 -0.97643,0.04961 -1.59379,0.04961 H 340.187 c -0.70555,0 -1.30151,-0.01929 -1.78815,-0.05788 -0.48135,-0.0441 -0.88188,-0.129536 -1.20122,-0.256315 -0.31934,-0.126779 -0.56924,-0.308681 -0.74975,-0.545703 -0.17498,-0.237022 -0.30915,-0.551216 -0.40222,-0.942578 -0.0931,-0.391362 -0.15954,-0.870922 -0.19915,-1.438672 -0.0343,-0.573262 -0.0675,-1.256773 -0.0997,-2.050521 -0.0323,-0.793747 -0.0544,-1.474502 -0.0664,-2.042252 -0.0122,-0.573262 0.0122,-1.055579 0.0732,-1.44694 0.0612,-0.391362 0.17292,-0.705557 0.33418,-0.942578 0.16124,-0.237022 0.3959,-0.418924 0.70494,-0.545703 0.30903,-0.12678 0.70279,-0.209462 1.18078,-0.248047 0.48327,-0.0441 1.07793,-0.06615 1.78348,-0.06615 h 4.24987 c 0.79375,0 1.46142,0.02756 2.00385,0.08268 0.54244,0.05512 0.98337,0.181902 1.32215,0.380339 0.33879,0.198437 0.58752,0.490582 0.7465,0.876432 0.15901,0.385849 0.25212,0.909507 0.27899,1.570963 h 1.5875 c -0.0197,-0.485068 -0.0706,-0.926042 -0.15289,-1.322916 -0.0822,-0.396874 -0.21545,-0.75241 -0.3991,-1.066602 -0.17813,-0.314192 -0.41519,-0.587045 -0.71123,-0.818554 -0.29052,-0.23151 -0.654,-0.421681 -1.09,-0.570508 -0.43621,-0.15434 -0.95319,-0.26734 -1.55141,-0.338998 -0.59845,-0.07717 -1.29477,-0.115755 -2.08852,-0.115755 z m 17.99993,0 c -0.97013,0 -1.78624,0.06063 -2.44829,0.181901 -0.65675,0.115755 -1.19509,0.294901 -1.6152,0.537435 -0.42032,0.237022 -0.74153,0.537436 -0.96375,0.901237 -0.21674,0.363801 -0.3704,0.790995 -0.46072,1.281576 -0.0848,0.49058 -0.12278,1.044554 -0.11427,1.661914 0.009,0.617359 0.0279,1.30087 0.0584,2.05052 0.0304,0.749651 0.0664,1.433162 0.10801,2.050521 0.0416,0.617359 0.12494,1.171334 0.24961,1.661914 0.13017,0.49058 0.31827,0.917775 0.56455,1.281576 0.2518,0.363801 0.59759,0.666971 1.03739,0.909505 0.43957,0.237022 0.99262,0.413412 1.65877,0.529167 0.6719,0.121267 1.49291,0.181901 2.46304,0.181901 h 4.77904 c 0.97013,0 1.78349,-0.06063 2.44002,-0.181901 0.66227,-0.115755 1.20339,-0.292145 1.62372,-0.529167 0.42008,-0.242534 0.73852,-0.545704 0.95525,-0.909505 0.21674,-0.363801 0.36763,-0.790996 0.45244,-1.281576 0.0902,-0.49058 0.13108,-1.044555 0.12227,-1.661914 -0.003,-0.617359 -0.0197,-1.30087 -0.0501,-2.050521 -0.0305,-0.74965 -0.0691,-1.433161 -0.11626,-2.05052 -0.0416,-0.61736 -0.1277,-1.171334 -0.25788,-1.661914 -0.12465,-0.490581 -0.31,-0.917775 -0.55628,-1.281576 -0.24631,-0.363801 -0.58931,-0.664215 -1.02889,-0.901237 -0.43978,-0.242534 -0.99561,-0.42168 -1.66728,-0.537435 -0.66638,-0.121267 -1.48463,-0.181901 -2.45477,-0.181901 z m 0.0537,1.322917 h 4.77904 c 0.70555,0 1.29928,0.02205 1.78064,0.06615 0.48664,0.03858 0.88663,0.121267 1.20046,0.248047 0.31935,0.126779 0.56925,0.308681 0.74976,0.545703 0.18049,0.237021 0.3174,0.551216 0.41047,0.942578 0.0931,0.391361 0.15681,0.873678 0.19114,1.44694 0.0395,0.56775 0.0755,1.248505 0.10774,2.042252 0.0323,0.793748 0.0516,1.477259 0.0584,2.050521 0.012,0.56775 -0.0124,1.04731 -0.0738,1.438672 -0.0612,0.391362 -0.17239,0.705556 -0.33365,0.942578 -0.16125,0.237022 -0.39642,0.418924 -0.70546,0.545703 -0.30904,0.126779 -0.70503,0.212218 -1.1883,0.256315 -0.47798,0.03858 -1.06715,0.05788 -1.76719,0.05788 h -4.77904 c -0.70555,0 -1.3015,-0.01929 -1.78814,-0.05788 -0.48136,-0.0441 -0.88188,-0.129536 -1.20122,-0.256315 -0.31935,-0.126779 -0.56924,-0.308681 -0.74975,-0.545703 -0.17498,-0.237022 -0.30915,-0.551216 -0.40222,-0.942578 -0.0931,-0.391362 -0.15955,-0.870922 -0.19915,-1.438672 -0.0343,-0.573262 -0.0675,-1.256773 -0.0997,-2.050521 -0.0322,-0.793747 -0.0544,-1.474502 -0.0664,-2.042252 -0.0122,-0.573262 0.0122,-1.055579 0.0732,-1.44694 0.0612,-0.391362 0.17241,-0.705557 0.33366,-0.942578 0.16125,-0.237022 0.39642,-0.418924 0.70546,-0.545703 0.30904,-0.12678 0.7028,-0.209462 1.18078,-0.248047 0.48327,-0.0441 1.07742,-0.06615 1.78297,-0.06615 z m -25.69378,5.902999 -1.56579,0.862479 c 0.004,0.178678 0.0146,0.415473 0.0164,0.576709 0.012,0.56775 -0.0124,1.04731 -0.0737,1.438672 -0.0612,0.391362 -0.17239,0.705556 -0.33365,0.942578 -0.16124,0.237022 -0.39642,0.418924 -0.70546,0.545703 -0.30904,0.126779 -0.70503,0.212218 -1.18829,0.256315 -0.47799,0.03858 -1.06716,0.05788 -1.7672,0.05788 h -2.87837 l -2.38543,1.314132 c 0.17569,0.0045 0.35167,0.0088 0.53841,0.0088 h 4.77904 c 0.97014,0 1.7835,-0.06063 2.44002,-0.181901 0.66227,-0.115755 1.20339,-0.292145 1.62372,-0.529167 0.42009,-0.242534 0.73852,-0.545704 0.95525,-0.909505 0.21674,-0.363801 0.36764,-0.790996 0.45244,-1.281576 0.0902,-0.49058 0.13108,-1.044555 0.12227,-1.661914 -0.002,-0.441797 -0.0137,-0.929643 -0.0299,-1.439188 z" />
    <path
       id="path4111"
       style="fill:#ffffff;fill-opacity:1;stroke:#000000;stroke-width:1.5875;stroke-dasharray:none;stroke-opacity:1"
       inkscape:transform-center-x="-0.43990851"
       d="m 302.32925,58.737499 0.51596,12.7 h 11.64166 l -0.0537,-1.322917 H 304.379 l -0.4623,-11.377083 z m 13.94821,1.460893 c -0.18618,0.340894 -0.32327,0.731277 -0.40527,1.176672 -0.0848,0.49058 -0.12278,1.044555 -0.11427,1.661914 0.008,0.617359 0.0279,1.30087 0.0584,2.050521 0.0304,0.74965 0.0664,1.433161 0.10799,2.050521 0.0416,0.617359 0.12495,1.171333 0.24961,1.661914 0.13016,0.49058 0.31828,0.917774 0.56456,1.281575 0.10205,0.147435 0.22371,0.282276 0.35663,0.409794 l 1.2776,-0.703833 c -0.10071,-0.0803 -0.19174,-0.168328 -0.26781,-0.268201 -0.175,-0.237021 -0.30914,-0.551216 -0.4022,-0.942578 -0.0931,-0.391361 -0.15955,-0.870921 -0.19915,-1.438671 -0.0343,-0.573263 -0.0675,-1.256774 -0.0997,-2.050521 -0.0322,-0.793748 -0.0544,-1.474503 -0.0664,-2.042253 -0.0122,-0.573262 0.0122,-1.055578 0.0732,-1.44694 0.041,-0.262212 0.10644,-0.486616 0.19237,-0.679545 z" />
  </g>
</svg>
